<svg id="illustration" xmlns="http://www.w3.org/2000/svg" xmlns:xlink="http://www.w3.org/1999/xlink" width="897" height="613.314" viewBox="0 0 299 204.438">
  <defs>
    <style>
      .cls-1 {
        fill: #f7cc99;
        opacity: 0.28;
      }

      .cls-1, .cls-10, .cls-11, .cls-12, .cls-14, .cls-15, .cls-16, .cls-18, .cls-19, .cls-2, .cls-20, .cls-3, .cls-4, .cls-5, .cls-6, .cls-7, .cls-8, .cls-9 {
        fill-rule: evenodd;
      }

      .cls-2 {
        fill: #b1c9ff;
      }

      .cls-21, .cls-3 {
        opacity: 0.1;
      }

      .cls-4 {
        fill: none;
        stroke: #535461;
        stroke-width: 0.5px;
      }

      .cls-5 {
        fill: #f5f5f5;
      }

      .cls-20, .cls-5 {
        opacity: 0.2;
      }

      .cls-6 {
        fill: #dadadb;
      }

      .cls-7 {
        fill: #fff;
      }

      .cls-8 {
        fill: url(#linear-gradient);
      }

      .cls-9 {
        fill: url(#linear-gradient-2);
      }

      .cls-10, .cls-17 {
        fill: #f7bbc3;
      }

      .cls-11 {
        fill: #b77983;
      }

      .cls-12 {
        fill: #8499f0;
      }

      .cls-13, .cls-16 {
        opacity: 0.05;
      }

      .cls-13 {
        filter: url(#filter);
      }

      .cls-15 {
        fill: #d39999;
      }

      .cls-18 {
        fill: #9b6c7a;
      }

      .cls-19 {
        fill: #a8a8a8;
      }
    </style>
    <linearGradient id="linear-gradient" x1="1422.06" y1="720.007" x2="1564.5" y2="804.649" gradientUnits="userSpaceOnUse">
      <stop offset="NaN" stop-color="gray"/>
      <stop offset="NaN" stop-color="gray" stop-opacity="0.251"/>
      <stop offset="Infinity" stop-color="#NaNNaNNaN" stop-opacity="0.102"/>
    </linearGradient>
    <linearGradient id="linear-gradient-2" x1="1640.395" y1="848" x2="1640.395" y2="662.281" xlink:href="#linear-gradient"/>
    <filter id="filter" filterUnits="userSpaceOnUse">
      <feFlood result="flood"/>
      <feComposite result="composite" operator="in" in2="SourceGraphic"/>
      <feBlend result="blend" in2="SourceGraphic"/>
    </filter>
  </defs>
  <path id="Path" class="cls-1" d="M1440.53,811.983c8.5-1.717,5.66.827,11.78,2.677,2.23,0.673,4.75.852,7.02,1.47,4.77,1.3,7.9,4.386,12.67,5.692,4.52,1.238,9.72.67,14.51-.068,30.75-4.746,60.01-15.719,91.58-14.43,19.41,0.785,37.52,6.188,55.01,11.6a35.107,35.107,0,0,0,7.02,1.642c4.27,0.408,8.51-.618,12.78-1.014,7.94-.738,16.53.886,21.91,4.686s6.98,9.727,3.16,14.213c-5.28,6.207-17.91,7.858-28.96,8.5-14.72.848-29.67,1.107-43.88,3.686-9.66,1.756-18.88,4.565-28.8,5.555-23.38,2.321-46.25-5.73-69.89-6.325-18.33-.465-36.29,3.579-54.64,3.7-17.34.113-34.7-3.4-48.75-9.878a4.793,4.793,0,0,1-1.76-1.143c-1.09-1.4,1.09-2.918,3.17-3.743,4.82-1.91,10.35-2.987,15.3-4.76s9.54-4.552,10.34-8.123c0.63-2.829-1.2-5.787.08-8.527C1431.61,814.337,1436.09,812.887,1440.53,811.983Z" transform="translate(-1401 -662.281)"/>
  <path id="Path-2" data-name="Path" class="cls-2" d="M1424.1,756.615c-18.96,28.941-2.02,67.909,32.11,73.925,0.5,0.089.77,0.128,0.77,0.128s-25.45-40.938-16.08-65.556a39.592,39.592,0,0,0-7.24-41.208C1436.94,733.217,1431.15,745.841,1424.1,756.615Z" transform="translate(-1401 -662.281)"/>
  <path id="Path-3" data-name="Path" class="cls-3" d="M1424.1,756.615c-18.96,28.941-2.02,67.909,32.11,73.925,0.5,0.089.77,0.128,0.77,0.128s-25.45-40.938-16.08-65.556a39.592,39.592,0,0,0-7.24-41.208C1436.94,733.217,1431.15,745.841,1424.1,756.615Z" transform="translate(-1401 -662.281)"/>
  <path id="Path-4" data-name="Path" class="cls-4" d="M1456.97,830.668c-24.91-6.688-32.68-53.246-23.31-69.837s0-36.927,0-36.927" transform="translate(-1401 -662.281)"/>
  <path id="Path-5" data-name="Path" class="cls-2" d="M1408.62,811.721c-4.12,24.957,23.27,31.773,51.93,12.984,0.42-.276.65-0.431,0.65-0.431s-34.71-2.354-36.43-19.319S1404.09,791,1404.09,791C1410.03,793.122,1410.16,802.435,1408.62,811.721Z" transform="translate(-1401 -662.281)"/>
  <path id="Path-6" data-name="Path" class="cls-5" d="M1408.62,811.721c-4.12,24.957,23.27,31.773,51.93,12.984,0.42-.276.65-0.431,0.65-0.431s-34.71-2.354-36.43-19.319S1404.09,791,1404.09,791C1410.03,793.122,1410.16,802.435,1408.62,811.721Z" transform="translate(-1401 -662.281)"/>
  <path id="Path-7" data-name="Path" class="cls-4" d="M1461.2,824.274c-21.77,12.7-44.82-3.321-43.61-16.683S1404.09,791,1404.09,791" transform="translate(-1401 -662.281)"/>
  <path id="Path-8" data-name="Path" class="cls-2" d="M1602.54,830.293H1446.66V733.009h19.93l8.21,10.122h127.74v87.162h0Z" transform="translate(-1401 -662.281)"/>
  <path id="Path-9" data-name="Path" class="cls-3" d="M1602.54,830.293H1446.66V733.009h19.93l8.21,10.122h127.74v87.162h0Z" transform="translate(-1401 -662.281)"/>
  <path id="Rectangle" class="cls-6" d="M1475.67,717.972l70.15-25.352,39.51,109.114-70.16,25.353Z" transform="translate(-1401 -662.281)"/>
  <path id="Rectangle-2" data-name="Rectangle" class="cls-7" d="M1488.92,725.321l19.82-7.163,1.69,4.659-19.83,7.163Z" transform="translate(-1401 -662.281)"/>
  <path id="Rectangle-3" data-name="Rectangle" class="cls-7" d="M1497.12,736.977l43.62-15.558,1.52,4.279-43.61,15.558Z" transform="translate(-1401 -662.281)"/>
  <path id="Rectangle-4" data-name="Rectangle" class="cls-7" d="M1500.39,746.121L1544,730.563l1.53,4.278L1501.92,750.4Z" transform="translate(-1401 -662.281)"/>
  <path id="Rectangle-5" data-name="Rectangle" class="cls-7" d="M1503.66,755.264l43.61-15.558,1.53,4.279-43.61,15.558Z" transform="translate(-1401 -662.281)"/>
  <path id="Rectangle-6" data-name="Rectangle" class="cls-7" d="M1506.92,764.405l43.62-15.558,1.53,4.278-43.62,15.559Z" transform="translate(-1401 -662.281)"/>
  <path id="Rectangle-7" data-name="Rectangle" class="cls-7" d="M1510.19,773.546l43.62-15.559,1.52,4.279-43.61,15.559Z" transform="translate(-1401 -662.281)"/>
  <path id="Rectangle-8" data-name="Rectangle" class="cls-7" d="M1513.46,782.689l43.61-15.558,1.53,4.279-43.61,15.558Z" transform="translate(-1401 -662.281)"/>
  <path id="Rectangle-9" data-name="Rectangle" class="cls-7" d="M1554.28,786.332l11.29-4.029,4.03,11.282-11.29,4.028Z" transform="translate(-1401 -662.281)"/>
  <path id="Rectangle-10" data-name="Rectangle" class="cls-8" d="M1422.07,764.816l39.34-66.153,103.09,61.2-39.35,66.153Z" transform="translate(-1401 -662.281)"/>
  <path id="Rectangle-11" data-name="Rectangle" class="cls-6" d="M1424.28,764.74l38.12-64.1,99.89,59.3-38.13,64.1Z" transform="translate(-1401 -662.281)"/>
  <path id="Rectangle-12" data-name="Rectangle" class="cls-7" d="M1439.12,762.022l10.77-18.112,4.27,2.532-10.78,18.112Z" transform="translate(-1401 -662.281)"/>
  <path id="Rectangle-13" data-name="Rectangle" class="cls-7" d="M1452.61,765.221l23.65-39.773,3.91,2.32-23.65,39.775Z" transform="translate(-1401 -662.281)"/>
  <path id="Rectangle-14" data-name="Rectangle" class="cls-7" d="M1460.96,770.182l23.66-39.774,3.91,2.321L1464.87,772.5Z" transform="translate(-1401 -662.281)"/>
  <path id="Rectangle-15" data-name="Rectangle" class="cls-7" d="M1469.28,775.009l23.62-39.789,3.91,2.317-23.62,39.789Z" transform="translate(-1401 -662.281)"/>
  <path id="Rectangle-16" data-name="Rectangle" class="cls-7" d="M1477.66,780.1l23.66-39.774,3.91,2.322-23.66,39.773Z" transform="translate(-1401 -662.281)"/>
  <path id="Rectangle-17" data-name="Rectangle" class="cls-7" d="M1486.02,785.059l23.66-39.774,3.9,2.321-23.65,39.774Z" transform="translate(-1401 -662.281)"/>
  <path id="Rectangle-18" data-name="Rectangle" class="cls-7" d="M1494.37,790.019l23.66-39.774,3.91,2.321-23.66,39.774Z" transform="translate(-1401 -662.281)"/>
  <path id="Rectangle-19" data-name="Rectangle" class="cls-7" d="M1528.04,766.654l6.12-10.3,10.31,6.109-6.12,10.3Z" transform="translate(-1401 -662.281)"/>
  <path id="Path-10" data-name="Path" class="cls-9" d="M1686.34,701.081c-0.02.348-.07,0.717-0.13,1.109-0.61,3.723-2.88,9.393-5.18,14.481-0.24.536-.49,1.063-0.73,1.583s-0.48,1.028-.71,1.526c-0.47,1-.93,1.943-1.36,2.815-0.18.373-.35,0.751-0.49,1.134a12.913,12.913,0,0,0-.67,2.356c-0.04.2-.08,0.4-0.11,0.595a9.54,9.54,0,0,0-.11,1.214q-0.03.626,0,1.22a13.462,13.462,0,0,0,.47,3.026c0.07,0.238.14,0.482,0.2,0.732l0.1,0.381c0.06,0.258.12,0.52,0.18,0.788s0.13,0.542.19,0.821,0.12,0.564.18,0.851c0.11,0.578.23,1.173,0.33,1.768,0.09,0.452.16,0.909,0.24,1.371,0.21,1.232.4,2.491,0.57,3.734,0.04,0.312.09,0.621,0.13,0.929,0.16,1.228.31,2.433,0.45,3.57,0.16,1.419.3,2.729,0.41,3.844,0.23,2.231.34,3.686,0.34,3.686l-13.21,8.084-1.2-5.54-0.23,6.924c-2.36.61-4.66,1.077-6.89,1.425-0.07.248-.13,0.5-0.19,0.759-2.49,10.443-3.31,29.2-3.31,29.2,8.73,5.528,11.33,20.53,11.33,20.53,0,3.924,6.15,18.476,6.15,18.476a2.525,2.525,0,0,1-.94.658q0.135,0.2.27,0.419c1.02,1.753,1.55,4.74,1.81,7.141a2.682,2.682,0,0,1-.93,2.312,2.713,2.713,0,0,1-2.43.565,128.508,128.508,0,0,0-12.9-2.571c-4.73-.461-4.73-6.23-1.43-5.533a5.228,5.228,0,0,0,4.47-1.586c0.1-.1.2-0.2,0.3-0.3a19.026,19.026,0,0,1-3.58-8.274c-1.18-6-11.34-25.154-11.34-25.154-2.36-2.993-4.28-8.533-4.28-8.533l-4.02-25.153s-0.83,1.07-2.15,2.814l0.04,0.259c-5.15,6.831-16.97,22.993-16.79,27.159,0.24,5.308-4.25,26.308-4.25,26.308-1.65,2.77-1.65,12.925-1.65,12.925-0.14.142-.28,0.276-0.42,0.4,0.05,0.107.1,0.214,0.14,0.324a24.078,24.078,0,0,1,1.42,6.353,2.7,2.7,0,0,1-3.37,2.877,127.807,127.807,0,0,0-12.89-2.571c-4.73-.464-4.73-6.233-1.42-5.54,2.17,0.456,4.03-1.071,5.06-2.178,0.12-.116.21-0.229,0.3-0.333-0.25-.295-0.39-0.488-0.39-0.488-1.18-4.846.71-20.77,0.71-20.77s2.84-13.393,3.07-21.694,3.07-10.384,3.07-10.384A73.241,73.241,0,0,1,1619.67,760l0.23-.318c-3.04-4.609,2.14-9.668,2.14-9.668l-6.62,5.309a1.9,1.9,0,0,1-1.33-.06c-0.08.116-.17,0.235-0.26,0.357-1.42,1.881-4.37,4.344-9.78,3.666a2.26,2.26,0,0,1-1.6-3.57,14.517,14.517,0,0,1,7.12-5.332q0.36-.117.72-0.211l-0.06-.159s13.7-20.074,18.9-23.076,11.1-21,12.75-24.695,4.26-4.615,5.2-4.615a59.518,59.518,0,0,0,6.55-1.785l-11.02-6.766a3.673,3.673,0,0,1-.44-2.407l-4.04-2.207s-18.9,3.691-15.36-3.461,16.3-2.538,16.3-2.538l6.36,4.2c0.3-.184.49-0.282,0.49-0.282l4.58,1.636a9.753,9.753,0,0,1-3.1-9.771,2.079,2.079,0,0,0-.42-0.262,5.858,5.858,0,0,0-2.27-.169c-1.99-.042-3.71-1.286-5.23-2.529-0.8-.658-1.67-1.6-1.31-2.565l0.17,0.02a1.114,1.114,0,0,1,.06-0.252,8.873,8.873,0,0,0,5.89-1.613,61.528,61.528,0,0,1,5.22-3.368,12.616,12.616,0,0,1,12.36.878c0.74,0.5,1.42,1.083,2.19,1.529,0.98,0.571,2.11.908,3.06,1.535a7.039,7.039,0,0,1,2.95,5.582,13.357,13.357,0,0,1-1.49,6.284,10.677,10.677,0,0,0-1.1,2.916c-0.09.63,0.34,1.738,0.12,2.255a1.648,1.648,0,0,1-.49.622,2.057,2.057,0,0,1-.71.515,18.772,18.772,0,0,0,.67,2.192l0.35-.124,8.97,3.46,2.48,0.244h0l1.84,0.178a1.989,1.989,0,0,1,.83.271c0.11,0.063.17,0.107,0.36,0.226a7.046,7.046,0,0,1,.59.438c0.11,0.089.22,0.181,0.33,0.282s0.23,0.207.35,0.324,0.23,0.242.35,0.372l0.18,0.2a11.133,11.133,0,0,1,2.24,4.251c0.04,0.135.07,0.273,0.11,0.414,0.07,0.282.13,0.573,0.19,0.875a4.27,4.27,0,0,0,.08.461,1.9,1.9,0,0,1,.04.419A6.3,6.3,0,0,1,1686.34,701.081Z" transform="translate(-1401 -662.281)"/>
  <path id="Path-11" data-name="Path" class="cls-10" d="M1645.98,689.991l-7.79-4.35s-18.33,3.663-14.89-3.433,15.81-2.517,15.81-2.517l7.79,5.266Z" transform="translate(-1401 -662.281)"/>
  <path id="Rectangle-20" data-name="Rectangle" class="cls-6" d="M1561.9,726.522l40.03-62.936,98.07,62.25-40.03,62.936Z" transform="translate(-1401 -662.281)"/>
  <path id="Rectangle-21" data-name="Rectangle" class="cls-7" d="M1576.82,724.247l11.31-17.783,4.19,2.658-11.31,17.783Z" transform="translate(-1401 -662.281)"/>
  <path id="Rectangle-22" data-name="Rectangle" class="cls-7" d="M1590.21,727.848l24.83-39.051,3.84,2.437-24.83,39.051Z" transform="translate(-1401 -662.281)"/>
  <path id="Rectangle-23" data-name="Rectangle" class="cls-7" d="M1598.41,733.054L1623.25,694l3.83,2.436-24.83,39.051Z" transform="translate(-1401 -662.281)"/>
  <path id="Rectangle-24" data-name="Rectangle" class="cls-7" d="M1606.61,738.261l24.84-39.051,3.84,2.436L1610.45,740.7Z" transform="translate(-1401 -662.281)"/>
  <path id="Rectangle-25" data-name="Rectangle" class="cls-7" d="M1615.31,744.761l25.01-38.864,3.82,2.454-25.01,38.863Z" transform="translate(-1401 -662.281)"/>
  <path id="Rectangle-26" data-name="Rectangle" class="cls-7" d="M1623.02,748.672l24.83-39.051,3.84,2.437-24.83,39.05Z" transform="translate(-1401 -662.281)"/>
  <path id="Rectangle-27" data-name="Rectangle" class="cls-7" d="M1631.74,755.278l25-38.864,3.82,2.454-25.01,38.864Z" transform="translate(-1401 -662.281)"/>
  <path id="Rectangle-28" data-name="Rectangle" class="cls-7" d="M1665.66,731.687l6.43-10.11L1682.21,728l-6.43,10.111Z" transform="translate(-1401 -662.281)"/>
  <path id="Path-12" data-name="Path" class="cls-11" d="M1672.33,844.881a2.641,2.641,0,0,0,.89-2.27c-0.27-2.384-.77-5.344-1.76-7.1a3.229,3.229,0,0,0-1.19-1.3c-2.2-1.184-5.78-.618-7.5-0.244a2.69,2.69,0,0,0-1.49.893,9.279,9.279,0,0,1-.89.973,4.959,4.959,0,0,1-4.32,1.574c-3.21-.688-3.21,5.034,1.37,5.492a121.364,121.364,0,0,1,12.51,2.55A2.669,2.669,0,0,0,1672.33,844.881Z" transform="translate(-1401 -662.281)"/>
  <path id="Path-13" data-name="Path" class="cls-11" d="M1614.36,847.174a2.664,2.664,0,0,0,.9-2.278,24.912,24.912,0,0,0-1.38-6.3,4.119,4.119,0,0,0-1.57-2.083c-2.2-1.184-5.78-.619-7.49-0.244a2.624,2.624,0,0,0-1.49.893c-0.1.119-.21,0.247-0.33,0.381-1,1.1-2.82,2.612-4.9,2.16-3.21-.687-3.21,5.034,1.37,5.492a121.364,121.364,0,0,1,12.51,2.55A2.65,2.65,0,0,0,1614.36,847.174Z" transform="translate(-1401 -662.281)"/>
  <path id="Path-14" data-name="Path" class="cls-3" d="M1612.31,836.511c-2.2-1.184-5.78-.619-7.49-0.244a2.624,2.624,0,0,0-1.49.893c-0.1.119-.21,0.247-0.33,0.381,0.71,0.946,5.4,6.682,10.87,1.05A3.984,3.984,0,0,0,1612.31,836.511Z" transform="translate(-1401 -662.281)"/>
  <path id="Path-15" data-name="Path" class="cls-3" d="M1671.46,835.505a3.229,3.229,0,0,0-1.19-1.288c-2.2-1.184-5.78-.618-7.5-0.244a2.69,2.69,0,0,0-1.49.893,9.025,9.025,0,0,1-.89.967,8.161,8.161,0,0,0,.72.892s7.97,0.4,10.35-1.22h0Z" transform="translate(-1401 -662.281)"/>
  <path id="Path-16" data-name="Path" class="cls-12" d="M1665.92,816.122s-2.52-14.877-11-20.376c0,0,.8-18.61,3.21-28.967a23.236,23.236,0,0,1,1.6-4.913l-37.12-4.35s-0.91,1.057-2.3,3.038a73.5,73.5,0,0,0-10.76,23.746s-2.75,2.059-2.98,10.3-2.98,21.517-2.98,21.517-1.83,15.793-.68,20.6c0,0,5.04,7.325,11,1.145,0,0,0-10.072,1.6-12.818,0,0,4.35-20.824,4.12-26.09s18.56-29.989,18.56-29.989l3.9,24.951s1.83,5.5,4.12,8.471c0,0,9.86,19,11,24.952s3.9,8.7,3.9,8.7,9.16,0.455,10.77-1.6C1671.88,834.438,1665.92,820.013,1665.92,816.122Z" transform="translate(-1401 -662.281)"/>
  <g id="Group" class="cls-13">
    <path id="Path-17" data-name="Path" class="cls-14" d="M1619.88,798.951c0.23,5.269-4.13,26.1-4.13,26.1-1.6,2.746-1.6,12.818-1.6,12.818-2.34,2.425-4.53,2.77-6.34,2.3a7.914,7.914,0,0,0,3.58-2.3s0-10.072,1.6-12.818c0,0,4.35-20.827,4.12-26.093s18.56-29.988,18.56-29.988l0.48,3.049C1631.16,778.793,1619.69,794.833,1619.88,798.951Z" transform="translate(-1401 -662.281)"/>
    <path id="Path-18" data-name="Path" class="cls-14" d="M1672.1,834.434c-1.32,1.705-7.84,1.685-10.04,1.628,2.78-.074,6.35-0.413,7.3-1.628,0,0-5.96-14.421-5.96-18.312,0,0-2.52-14.877-11-20.382,0,0,.8-18.61,3.22-28.967a23.291,23.291,0,0,1,1.59-4.913l-34.61-4.055c0.16-.2.24-0.3,0.24-0.3l37.12,4.362a23.244,23.244,0,0,0-1.6,4.912c-2.41,10.359-3.21,28.967-3.21,28.967,8.48,5.5,11,20.373,11,20.373C1666.15,820.013,1672.11,834.438,1672.1,834.434Z" transform="translate(-1401 -662.281)"/>
  </g>
  <path id="Path-19" data-name="Path" class="cls-10" d="M1613.45,750.426a12.5,12.5,0,0,0-2.93.595,14.1,14.1,0,0,0-6.91,5.29,2.249,2.249,0,0,0,1.55,3.538c5.25,0.673,8.11-1.782,9.49-3.636a8.2,8.2,0,0,0,1.09-1.895Z" transform="translate(-1401 -662.281)"/>
  <path id="Path-20" data-name="Path" class="cls-15" d="M1660.41,701.437l-17.86-11.217c-2.07-3.891,3.2-6.638,3.2-6.638l18.38,6.716Z" transform="translate(-1401 -662.281)"/>
  <path id="Path-21" data-name="Path" class="cls-3" d="M1660.41,701.437l-17.86-11.217c-2.07-3.891,3.2-6.638,3.2-6.638l18.38,6.716Z" transform="translate(-1401 -662.281)"/>
  <path id="Path-22" data-name="Path" class="cls-10" d="M1655.38,682.666c2.98,5.722,0,16.71,0,16.71s18.79-2.059,13.98-5.722-4.59-14.421-4.59-14.421S1652.4,676.945,1655.38,682.666Z" transform="translate(-1401 -662.281)"/>
  <path id="Path-23" data-name="Path" class="cls-3" d="M1622.61,757.52s-0.91,1.055-2.3,3.037c0.08,0.131.16,0.262,0.24,0.4,0,0,15.43,9.208,37.59,5.829a23.24,23.24,0,0,1,1.59-4.912Z" transform="translate(-1401 -662.281)"/>
  <path id="Path-24" data-name="Path" class="cls-3" d="M1613.45,750.423a12.549,12.549,0,0,0-2.93.6c0.31,0.792,2.01,4.844,4.13,5.195a8.2,8.2,0,0,0,1.09-1.895Z" transform="translate(-1401 -662.281)"/>
  <path id="Path-25" data-name="Path" class="cls-15" d="M1675.34,692.277l4.19,0.419a1.928,1.928,0,0,1,.81.268c1.07,0.643,3.88,2.812,4.62,7.783,0.63,4.219-4.51,15.787-7.83,22.714a13.554,13.554,0,0,0-.9,9.473c2.07,7.522,3.22,22.3,3.22,22.3l-12.85,8.022-1.15-5.493-0.23,6.868c-25.88,6.867-44.67-4.35-44.67-4.35-2.98-4.577,2.06-9.614,2.06-9.614l-6.41,5.267c-2.75.913-5.04-5.267-5.04-5.267s13.28-19.934,18.33-22.91,10.76-20.824,12.37-24.487,4.12-4.579,5.04-4.579,8.02-2.288,8.02-2.288l3.44-4.579,8.25-2.975Z" transform="translate(-1401 -662.281)"/>
  <path id="Path-26" data-name="Path" class="cls-16" d="M1623.87,752.83c0.46-1.833,13.98-12.82,19.02-16.254s9.62-24.722,9.62-24.722" transform="translate(-1401 -662.281)"/>
  <path id="Path-27" data-name="Path" class="cls-15" d="M1621.81,752.152c0.46-1.842,13.98-12.83,19.02-16.263s9.62-24.722,9.62-24.722" transform="translate(-1401 -662.281)"/>
  <path id="Path-28" data-name="Path" class="cls-3" d="M1675.2,692.4c-4.58-1.374-20.39,3.892-20.39,3.892" transform="translate(-1401 -662.281)"/>
  <g id="Group-2" data-name="Group" class="cls-13">
    <path id="Path-29" data-name="Path" class="cls-14" d="M1677.1,723.464a13.6,13.6,0,0,0-.87,9.47c2.07,7.522,3.22,22.3,3.22,22.3l-12.86,8.016-0.28-1.342,11.05-6.9s-1.13-14.775-3.22-22.3a13.609,13.609,0,0,1,.9-9.473c3.32-6.927,8.46-18.5,7.83-22.714-0.75-4.972-3.55-7.129-4.62-7.783a1.8,1.8,0,0,0-.53-0.218l1.79,0.179a1.975,1.975,0,0,1,.81.268c1.07,0.642,3.88,2.811,4.62,7.783,0.62,4.219-4.51,15.787-7.84,22.714h0Z" transform="translate(-1401 -662.281)"/>
    <path id="Path-30" data-name="Path" class="cls-14" d="M1673.25,692.053l1.99,0.2-8.63-3.4-0.78.28,7.42,2.927h0Z" transform="translate(-1401 -662.281)"/>
  </g>
  <path id="Path-31" data-name="Path" class="cls-16" d="M1670.61,730.167s-8.47,1.146-10.76.229-9.4,2.976-9.4,2.976" transform="translate(-1401 -662.281)"/>
  <path id="Path-32" data-name="Path" class="cls-16" d="M1656.75,688.617h-0.12a13.131,13.131,0,0,0-1.26-5.035c-2.98-5.721,9.4-3.433,9.4-3.433s-1.07-.348-0.81,1.946C1662.21,684.779,1660.21,688.62,1656.75,688.617Z" transform="translate(-1401 -662.281)"/>
  <ellipse id="Oval" class="cls-17" cx="255.75" cy="15.579" rx="9.84" ry="9.829"/>
  <path id="Path-33" data-name="Path" class="cls-3" d="M1666.41,683.645c-0.09.628,0.33,1.726,0.11,2.238-0.58,1.359-2.85,1.374-3.99.943a13.151,13.151,0,0,1-3.87-2.931,6.413,6.413,0,0,0-4.31-2.062c-1.05.042-2.19,0.512-3.08-.054a3.364,3.364,0,0,1-1.05-1.538,20.371,20.371,0,0,0-2.34-3.96,3.157,3.157,0,0,0-1.12-1.044,5.541,5.541,0,0,0-2.21-.17c-1.91-.041-3.59-1.273-5.06-2.508-0.78-.652-1.62-1.592-1.28-2.544a8.482,8.482,0,0,0,5.72-1.6,57.4,57.4,0,0,1,5.06-3.341,12.03,12.03,0,0,1,12,.872c0.71,0.5,1.37,1.074,2.12,1.517,0.96,0.565,2.05.9,2.98,1.52a7.075,7.075,0,0,1,2.85,5.537,13.6,13.6,0,0,1-1.43,6.249A11.711,11.711,0,0,0,1666.41,683.645Z" transform="translate(-1401 -662.281)"/>
  <path id="Path-34" data-name="Path" class="cls-18" d="M1666.64,683.416c-0.09.628,0.33,1.726,0.11,2.237-0.58,1.36-2.85,1.375-3.99.943a13.13,13.13,0,0,1-3.87-2.93,6.409,6.409,0,0,0-4.31-2.062c-1.05.042-2.19,0.512-3.08-.053a3.372,3.372,0,0,1-1.05-1.539,20.342,20.342,0,0,0-2.34-3.96,3.157,3.157,0,0,0-1.12-1.044,5.523,5.523,0,0,0-2.21-.17c-1.92-.041-3.59-1.273-5.06-2.508-0.78-.652-1.62-1.592-1.28-2.544a8.5,8.5,0,0,0,5.72-1.6,57.177,57.177,0,0,1,5.06-3.341,12.028,12.028,0,0,1,12,.872c0.71,0.5,1.37,1.074,2.12,1.517,0.96,0.566,2.05.9,2.97,1.521a7.052,7.052,0,0,1,2.86,5.537,13.6,13.6,0,0,1-1.43,6.248A11.757,11.757,0,0,0,1666.64,683.416Z" transform="translate(-1401 -662.281)"/>
  <path id="Path-35" data-name="Path" class="cls-2" d="M1602.54,834.423H1446.66V737.138h19.93l8.21,10.123h127.74v87.162h0Z" transform="translate(-1401 -662.281)"/>
  <path id="Path-36" data-name="Path" class="cls-19" d="M1451.92,850.4c-2.24.893-12.53,0.453-20.16-.893s3.57-8.946,4.47-11.193,8.96,0.887,10.75,2.678,8.51,3.133,8.51,3.133S1454.17,849.51,1451.92,850.4Z" transform="translate(-1401 -662.281)"/>
  <path id="Path-37" data-name="Path" class="cls-20" d="M1429.16,847.047c-0.23,1.154.4,2.065,2.6,2.451,7.61,1.34,17.93,1.786,20.16.893s3.57-6.266,3.57-6.266l-0.22-.048c-0.47,1.527-1.65,4.8-3.36,5.484-2.24.893-12.55,0.449-20.16-.892C1430.11,848.38,1429.34,847.8,1429.16,847.047Z" transform="translate(-1401 -662.281)"/>
  <path id="Path-38" data-name="Path" class="cls-19" d="M1588.91,866c-3.42,1.366-19.15.684-30.77-1.366s5.48-13.659,6.85-17.075,13.67,1.365,16.41,4.1,12.99,4.781,12.99,4.781S1592.33,864.631,1588.91,866Z" transform="translate(-1401 -662.281)"/>
  <path id="Path-39" data-name="Path" class="cls-20" d="M1554.2,860.891c-0.36,1.756.59,3.142,3.95,3.737,11.62,2.05,27.34,2.741,30.77,1.366s5.47-9.56,5.47-9.56l-0.34-.071c-0.72,2.323-2.53,7.322-5.13,8.364-3.42,1.365-19.15.684-30.76-1.366C1555.66,862.92,1554.49,862.037,1554.2,860.891Z" transform="translate(-1401 -662.281)"/>
  <rect id="Rectangle-29" data-name="Rectangle" class="cls-21" x="104.81" y="120.531" width="34.57" height="5.938"/>
</svg>
